<mxfile host="app.diagrams.net" agent="Mozilla/5.0 (Windows NT 10.0; Win64; x64; rv:143.0) Gecko/20100101 Firefox/143.0" version="28.2.7">
  <diagram name="Página-1" id="XZR_SPmcq3rBzVVqFf2r">
    <mxGraphModel dx="983" dy="531" grid="1" gridSize="10" guides="1" tooltips="1" connect="1" arrows="1" fold="1" page="1" pageScale="1" pageWidth="827" pageHeight="1169" math="0" shadow="0">
      <root>
        <mxCell id="0" />
        <mxCell id="1" parent="0" />
        <mxCell id="0VcdrI4uX9v3S0bcF42D-5" style="rounded=0;orthogonalLoop=1;jettySize=auto;html=1;entryX=0;entryY=0.5;entryDx=0;entryDy=0;endArrow=none;endFill=0;" edge="1" parent="1" source="0VcdrI4uX9v3S0bcF42D-1" target="0VcdrI4uX9v3S0bcF42D-4">
          <mxGeometry relative="1" as="geometry" />
        </mxCell>
        <mxCell id="0VcdrI4uX9v3S0bcF42D-8" style="rounded=0;orthogonalLoop=1;jettySize=auto;html=1;entryX=0;entryY=0.5;entryDx=0;entryDy=0;endArrow=none;endFill=0;" edge="1" parent="1" source="0VcdrI4uX9v3S0bcF42D-1" target="0VcdrI4uX9v3S0bcF42D-6">
          <mxGeometry relative="1" as="geometry" />
        </mxCell>
        <mxCell id="0VcdrI4uX9v3S0bcF42D-10" style="rounded=0;orthogonalLoop=1;jettySize=auto;html=1;entryX=0;entryY=0.5;entryDx=0;entryDy=0;endArrow=none;endFill=0;" edge="1" parent="1" source="0VcdrI4uX9v3S0bcF42D-1" target="0VcdrI4uX9v3S0bcF42D-9">
          <mxGeometry relative="1" as="geometry" />
        </mxCell>
        <mxCell id="0VcdrI4uX9v3S0bcF42D-12" style="rounded=0;orthogonalLoop=1;jettySize=auto;html=1;endArrow=none;endFill=0;" edge="1" parent="1" source="0VcdrI4uX9v3S0bcF42D-1" target="0VcdrI4uX9v3S0bcF42D-11">
          <mxGeometry relative="1" as="geometry" />
        </mxCell>
        <mxCell id="0VcdrI4uX9v3S0bcF42D-1" value="Cliente" style="shape=umlActor;verticalLabelPosition=bottom;verticalAlign=top;html=1;outlineConnect=0;" vertex="1" parent="1">
          <mxGeometry x="40" y="240" width="40" height="80" as="geometry" />
        </mxCell>
        <mxCell id="0VcdrI4uX9v3S0bcF42D-2" value="Sistema" style="swimlane;whiteSpace=wrap;html=1;movable=1;resizable=1;rotatable=1;deletable=1;editable=1;locked=0;connectable=1;" vertex="1" parent="1">
          <mxGeometry x="120" y="100" width="520" height="360" as="geometry" />
        </mxCell>
        <mxCell id="0VcdrI4uX9v3S0bcF42D-4" value="Faz Login" style="ellipse;whiteSpace=wrap;html=1;" vertex="1" parent="1">
          <mxGeometry x="160" y="140" width="120" height="30" as="geometry" />
        </mxCell>
        <mxCell id="0VcdrI4uX9v3S0bcF42D-6" value="Fazer Cadastro" style="ellipse;whiteSpace=wrap;html=1;" vertex="1" parent="1">
          <mxGeometry x="160" y="180" width="120" height="30" as="geometry" />
        </mxCell>
        <mxCell id="0VcdrI4uX9v3S0bcF42D-9" value="Visualizar Gráficos" style="ellipse;whiteSpace=wrap;html=1;" vertex="1" parent="1">
          <mxGeometry x="160" y="220" width="120" height="30" as="geometry" />
        </mxCell>
        <mxCell id="0VcdrI4uX9v3S0bcF42D-11" value="Editar Dados" style="ellipse;whiteSpace=wrap;html=1;" vertex="1" parent="1">
          <mxGeometry x="160" y="260" width="120" height="30" as="geometry" />
        </mxCell>
        <mxCell id="0VcdrI4uX9v3S0bcF42D-16" style="rounded=0;orthogonalLoop=1;jettySize=auto;html=1;entryX=1;entryY=0.5;entryDx=0;entryDy=0;endArrow=none;endFill=0;dashed=1;" edge="1" parent="1" source="0VcdrI4uX9v3S0bcF42D-14" target="0VcdrI4uX9v3S0bcF42D-4">
          <mxGeometry relative="1" as="geometry" />
        </mxCell>
        <mxCell id="0VcdrI4uX9v3S0bcF42D-17" value="include" style="edgeLabel;html=1;align=center;verticalAlign=middle;resizable=0;points=[];" vertex="1" connectable="0" parent="0VcdrI4uX9v3S0bcF42D-16">
          <mxGeometry x="-0.4107" relative="1" as="geometry">
            <mxPoint x="-27" as="offset" />
          </mxGeometry>
        </mxCell>
        <mxCell id="0VcdrI4uX9v3S0bcF42D-14" value="Validar" style="ellipse;whiteSpace=wrap;html=1;" vertex="1" parent="1">
          <mxGeometry x="360" y="140" width="120" height="30" as="geometry" />
        </mxCell>
        <mxCell id="0VcdrI4uX9v3S0bcF42D-19" style="rounded=0;orthogonalLoop=1;jettySize=auto;html=1;entryX=1;entryY=0.5;entryDx=0;entryDy=0;endArrow=none;endFill=0;dashed=1;exitX=0;exitY=0.5;exitDx=0;exitDy=0;" edge="1" parent="1" source="0VcdrI4uX9v3S0bcF42D-14" target="0VcdrI4uX9v3S0bcF42D-6">
          <mxGeometry relative="1" as="geometry">
            <mxPoint x="450" y="250" as="sourcePoint" />
            <mxPoint x="370" y="250" as="targetPoint" />
          </mxGeometry>
        </mxCell>
        <mxCell id="0VcdrI4uX9v3S0bcF42D-20" value="include" style="edgeLabel;html=1;align=center;verticalAlign=middle;resizable=0;points=[];" vertex="1" connectable="0" parent="0VcdrI4uX9v3S0bcF42D-19">
          <mxGeometry x="-0.4107" relative="1" as="geometry">
            <mxPoint x="-26" y="13" as="offset" />
          </mxGeometry>
        </mxCell>
        <mxCell id="0VcdrI4uX9v3S0bcF42D-22" value="DB" style="shape=cylinder3;whiteSpace=wrap;html=1;boundedLbl=1;backgroundOutline=1;size=15;" vertex="1" parent="1">
          <mxGeometry x="550" y="360" width="60" height="80" as="geometry" />
        </mxCell>
        <mxCell id="0VcdrI4uX9v3S0bcF42D-23" value="Sensores" style="shape=cube;whiteSpace=wrap;html=1;boundedLbl=1;backgroundOutline=1;darkOpacity=0.05;darkOpacity2=0.1;" vertex="1" parent="1">
          <mxGeometry x="680" y="380" width="120" height="60" as="geometry" />
        </mxCell>
        <mxCell id="0VcdrI4uX9v3S0bcF42D-24" style="rounded=0;orthogonalLoop=1;jettySize=auto;html=1;entryX=1;entryY=0.5;entryDx=0;entryDy=0;entryPerimeter=0;endArrow=none;endFill=0;" edge="1" parent="1" source="0VcdrI4uX9v3S0bcF42D-23" target="0VcdrI4uX9v3S0bcF42D-22">
          <mxGeometry relative="1" as="geometry" />
        </mxCell>
        <mxCell id="0VcdrI4uX9v3S0bcF42D-25" value="" style="endArrow=none;html=1;rounded=0;exitX=1;exitY=0.5;exitDx=0;exitDy=0;entryX=0;entryY=0.5;entryDx=0;entryDy=0;dashed=1;" edge="1" parent="1" source="0VcdrI4uX9v3S0bcF42D-9" target="0VcdrI4uX9v3S0bcF42D-31">
          <mxGeometry width="50" height="50" relative="1" as="geometry">
            <mxPoint x="280" y="280" as="sourcePoint" />
            <mxPoint x="380" y="330" as="targetPoint" />
          </mxGeometry>
        </mxCell>
        <mxCell id="0VcdrI4uX9v3S0bcF42D-28" value="extend" style="edgeLabel;html=1;align=center;verticalAlign=middle;resizable=0;points=[];" vertex="1" connectable="0" parent="0VcdrI4uX9v3S0bcF42D-25">
          <mxGeometry x="0.2681" y="-1" relative="1" as="geometry">
            <mxPoint as="offset" />
          </mxGeometry>
        </mxCell>
        <mxCell id="0VcdrI4uX9v3S0bcF42D-26" value="Faz o Processamento" style="ellipse;whiteSpace=wrap;html=1;" vertex="1" parent="1">
          <mxGeometry x="350" y="310" width="180" height="30" as="geometry" />
        </mxCell>
        <mxCell id="0VcdrI4uX9v3S0bcF42D-27" style="rounded=0;orthogonalLoop=1;jettySize=auto;html=1;entryX=0;entryY=0.5;entryDx=0;entryDy=0;entryPerimeter=0;dashed=1;endArrow=none;endFill=0;" edge="1" parent="1" source="0VcdrI4uX9v3S0bcF42D-26" target="0VcdrI4uX9v3S0bcF42D-22">
          <mxGeometry relative="1" as="geometry" />
        </mxCell>
        <mxCell id="0VcdrI4uX9v3S0bcF42D-30" value="&lt;div&gt;include&lt;/div&gt;" style="edgeLabel;html=1;align=center;verticalAlign=middle;resizable=0;points=[];" vertex="1" connectable="0" parent="0VcdrI4uX9v3S0bcF42D-27">
          <mxGeometry x="0.4028" y="-2" relative="1" as="geometry">
            <mxPoint as="offset" />
          </mxGeometry>
        </mxCell>
        <mxCell id="0VcdrI4uX9v3S0bcF42D-32" style="edgeStyle=orthogonalEdgeStyle;rounded=0;orthogonalLoop=1;jettySize=auto;html=1;entryX=0.5;entryY=0;entryDx=0;entryDy=0;dashed=1;endArrow=none;endFill=0;" edge="1" parent="1" source="0VcdrI4uX9v3S0bcF42D-31" target="0VcdrI4uX9v3S0bcF42D-26">
          <mxGeometry relative="1" as="geometry" />
        </mxCell>
        <mxCell id="0VcdrI4uX9v3S0bcF42D-33" value="&lt;div&gt;include&lt;/div&gt;" style="edgeLabel;html=1;align=center;verticalAlign=middle;resizable=0;points=[];" vertex="1" connectable="0" parent="0VcdrI4uX9v3S0bcF42D-32">
          <mxGeometry x="0.1161" relative="1" as="geometry">
            <mxPoint y="-4" as="offset" />
          </mxGeometry>
        </mxCell>
        <mxCell id="0VcdrI4uX9v3S0bcF42D-31" value="Gera Dashboard" style="ellipse;whiteSpace=wrap;html=1;" vertex="1" parent="1">
          <mxGeometry x="350" y="220" width="180" height="30" as="geometry" />
        </mxCell>
      </root>
    </mxGraphModel>
  </diagram>
</mxfile>
